<?xml version="1.0" standalone="no"?>
<!DOCTYPE svg PUBLIC "-//W3C//DTD SVG 20010904//EN"
 "http://www.w3.org/TR/2001/REC-SVG-20010904/DTD/svg10.dtd">
<svg version="1.0" xmlns="http://www.w3.org/2000/svg"
 width="262.000000pt" height="222.000000pt" viewBox="0 0 262.000000 222.000000"
 preserveAspectRatio="xMidYMid meet">
<metadata>
Created by potrace 1.10, written by Peter Selinger 2001-2011
</metadata>
<g transform="translate(0.000000,222.000000) scale(0.100000,-0.100000)"
fill="#000000" stroke="none">
<path d="M1231 2161 c-11 -21 -125 -220 -254 -442 -128 -222 -361 -624 -517
-894 -156 -269 -290 -500 -298 -513 l-14 -22 503 0 504 0 0 285 0 286 -190 -1
-190 -2 -3 96 -3 96 486 0 485 0 0 -97 0 -98 -195 3 -195 3 0 -285 0 -286 506
0 506 0 -14 22 c-8 13 -141 241 -295 508 -155 267 -387 669 -518 894 -130 225
-245 427 -256 448 -11 21 -21 38 -24 38 -3 0 -13 -17 -24 -39z m115 -194 c43
-72 95 -163 117 -202 22 -38 60 -104 85 -145 25 -41 56 -95 70 -120 30 -55
262 -456 346 -600 159 -270 316 -548 316 -558 0 -13 4 -13 -544 -13 -255 0
-331 3 -337 13 -9 15 -12 439 -3 462 5 14 29 16 170 16 208 0 204 -2 204 134
0 87 -2 96 -22 110 -20 14 -83 16 -494 16 -546 0 -516 5 -516 -90 0 -119 2
-130 22 -150 18 -18 33 -20 179 -20 121 0 161 -3 170 -14 13 -15 15 -443 3
-464 -6 -9 -90 -12 -343 -12 -516 -1 -539 -1 -539 10 0 9 74 142 180 325 50
87 245 424 260 450 9 17 31 53 48 81 18 28 32 54 32 57 0 3 23 42 50 86 28 44
50 83 50 86 0 3 11 22 23 43 13 20 67 111 119 202 250 434 255 443 268 435 5
-3 43 -65 86 -138z"/>
</g>
</svg>
